<svg xmlns="http://www.w3.org/2000/svg" width="172" height="186" viewBox="0 0 172 186"><defs><clipPath id="a"><path fill="#fff" d="M1354 1594v-186h172v186zm106.03-10.93c13.49-8.1 27.11-15.97 40.87-23.6 13.76-7.63 20.51-19.31 20.24-35.04-.28-15.73-.28-31.46 0-47.19.27-15.74-6.48-27.42-20.24-35.05a1369.54 1369.54 0 0 1-40.87-23.59c-13.49-8.11-26.97-8.11-40.46 0a1369.54 1369.54 0 0 1-40.87 23.59c-13.76 7.63-20.51 19.31-20.24 35.05.28 15.73.28 31.46 0 47.19-.27 15.73 6.48 27.41 20.24 35.04 13.76 7.63 27.38 15.5 40.87 23.6 13.49 8.1 26.97 8.1 40.46 0z"/></clipPath></defs><path fill="#fff" fill-opacity=".1" d="M65.57 175.07a1369.83 1369.83 0 0 0-40.87-23.6c-13.76-7.63-20.51-19.31-20.24-35.04.28-15.73.28-31.46 0-47.19-.27-15.74 6.48-27.42 20.24-35.05A1369.54 1369.54 0 0 0 65.57 10.6c13.49-8.11 26.97-8.11 40.46 0 13.49 8.1 27.11 15.96 40.87 23.59 13.76 7.63 20.51 19.31 20.24 35.05-.28 15.73-.28 31.46 0 47.19.27 15.73-6.48 27.41-20.24 35.04a1369.83 1369.83 0 0 0-40.87 23.6c-13.49 8.1-26.97 8.1-40.46 0z"/><path fill="none" stroke="#ccd0d2" stroke-linecap="round" stroke-linejoin="round" stroke-miterlimit="50" stroke-width="8" d="M1419.57 1583.07a1369.83 1369.83 0 0 0-40.87-23.6c-13.76-7.63-20.51-19.31-20.24-35.04.28-15.73.28-31.46 0-47.19-.27-15.74 6.48-27.42 20.24-35.05a1369.54 1369.54 0 0 0 40.87-23.59c13.49-8.11 26.97-8.11 40.46 0 13.49 8.1 27.11 15.96 40.87 23.59 13.76 7.63 20.51 19.31 20.24 35.05-.28 15.73-.28 31.46 0 47.19.27 15.73-6.48 27.41-20.24 35.04a1369.83 1369.83 0 0 0-40.87 23.6c-13.49 8.1-26.97 8.1-40.46 0z" clip-path="url(&quot;#a&quot;)" transform="translate(-1354 -1408)"/><path fill="#d1d5d7" d="M103.34 64.1H71.9A5.9 5.9 0 0 0 66 70v51.1a5.9 5.9 0 0 0 5.9 5.9h31.44a5.9 5.9 0 0 0 5.9-5.9V70a5.9 5.9 0 0 0-5.9-5.9zm1.97 57c0 1.09-.88 1.97-1.97 1.97H71.9a1.97 1.97 0 0 1-1.97-1.97v-3.93l35.38-.01zm0-5.9H69.93V75.9h35.38zm0-41.27H69.93V70c0-1.08.88-1.96 1.97-1.96l31.44-.01c1.09 0 1.97.88 1.97 1.97zm-13.76-2.95a.98.98 0 0 0-.98-.98h-5.9a.98.98 0 0 0 0 1.96h5.9c.54 0 .98-.44.98-.98zm-1.96 49.13a.98.98 0 0 0-.99-.98h-1.96a.98.98 0 0 0-.98.98c0 .54.43.98.98.98h1.96c.55 0 .99-.44.99-.98z"/></svg>